<svg xmlns="http://www.w3.org/2000/svg" viewBox="0 0 2000 1371">
    <path fill="#7887C4"
        d="M508 0h25l20 3 16 4 20 8 17 9 5 1 26-11 20-6 17-3 9-1h33l20 3 21 6 17 7 15 8 14 10 11 9 19 19 10 13 5 7v2l177-4 59-1h146l43 3 40 5 33 6 31 7 28 8 33 11 31 13 27 13 18 10 21 13 16 11 17 13 11 9 11 10 8 7 11 11h163l9-11 12-12 11-9 15-11 13-8 16-8 13-4 11-2h23l16 4 14 7 7 6 7 10 3 9 1 5v15l20 6 16 8 11 9 7 10 3 9v11l-3 10-6 8-5 5-9 7-14 7-8 3h-3l3 15-1 11-5 12-9 10-10 7-12 5-14 3h-24l-19-4-20-8-21-11-21-14-11-9-9-8-7-9h-99l14 26 12 26 11 29 9 29 7 28 6 32 4 31 2 25 1 28v17l-2 33-4 28-6 27-8 25-10 25-1 3 1 3v488l-3 21-5 17-8 17-8 12-12 14-11 10-16 11-18 10-25 10-25 7-31 6-25 3-34 2h-36l-34-2-31-4-29-6-26-8-21-9-17-9-14-10-8-7-26-4-28-6-23-7-20-8-21-11-14-10-12-11-8-8-10-14-8-16-5-13-4-19-1-9V995h-12l-31-3-20-3v242l-3 21-5 17-9 19-10 14-11 12-10 9-18 12-21 11-18 7-29 8-26 5-24 3-31 2h-48l-30-2-30-4-29-6-23-7-24-10-18-10-16-12-11-10-9-11-4-2-26-5-29-8-20-8-23-12-16-12-10-9-7-7-10-14-10-19-6-20-3-21-1-376-26-1-20 2-17 4-12 5-11 6-10 8-7 7-10 14-8 16-7 19-6 25-4 28-11 118-11 133-5 69-3 17-5 13-7 12-9 10-10 9-15 9-15 6-20 5-24 3h-30l-24-3-23-6-16-7-15-10-8-7-8-10-6-10-5-13-3-16V487l2-51 3-35 5-35 6-27 8-27 9-22 11-22 14-21 8-10 12-14 11-11 22-18 18-12 17-10 26-13 27-11 36-12 38-10 39-8 12-2 11-9 17-17 8-7 12-11 11-9 10-9 14-11 16-12 15-10 19-9 18-6 17-4z" />
    <path fill="#363254"
        d="M508 0h25l20 3 16 4 20 8 17 9 5 1 26-11 20-6 17-3 9-1h33l20 3 21 6 17 7 15 8 14 10 11 9 19 19 10 13 5 7v2l177-4 59-1h146l43 3 40 5 33 6 31 7 28 8 33 11 31 13 27 13 18 10 21 13 16 11 17 13 11 9 11 10 8 7 11 11h163l9-11 12-12 11-9 15-11 13-8 16-8 13-4 11-2h23l16 4 14 7 7 6 7 10 3 9 1 5v15l20 6 16 8 11 9 7 10 3 9v11l-3 10-6 8-5 5-9 7-14 7-8 3h-3l3 15-1 11-5 12-9 10-10 7-12 5-14 3h-24l-19-4-20-8-21-11-21-14-11-9-9-8-7-9h-99l14 26 12 26 11 29 9 29 7 28 6 32 4 31 2 25 1 28v17l-2 33-4 28-6 27-8 25-10 25-1 3 1 3v488l-3 21-5 17-8 17-8 12-12 14-11 10-16 11-18 10-25 10-25 7-31 6-25 3-34 2h-36l-34-2-31-4-29-6-26-8-21-9-17-9-14-10-8-7-26-4-28-6-23-7-20-8-21-11-14-10-12-11-8-8-10-14-8-16-5-13-4-19-1-9V995h-12l-31-3-20-3v242l-3 21-5 17-9 19-10 14-11 12-10 9-18 12-21 11-18 7-29 8-26 5-24 3-31 2h-48l-30-2-30-4-29-6-23-7-24-10-18-10-16-12-11-10-9-11-4-2-26-5-29-8-20-8-23-12-16-12-10-9-7-7-10-14-10-19-6-20-3-21-1-376-26-1-20 2-17 4-12 5-11 6-10 8-7 7-10 14-8 16-7 19-6 25-4 28-11 118-11 133-5 69-3 17-5 13-7 12-9 10-10 9-15 9-15 6-20 5-24 3h-30l-24-3-23-6-16-7-15-10-8-7-8-10-6-10-5-13-3-16V487l2-51 3-35 5-35 6-27 8-27 9-22 11-22 14-21 8-10 12-14 11-11 22-18 18-12 17-10 26-13 27-11 36-12 38-10 39-8 12-2 11-9 17-17 8-7 12-11 11-9 10-9 14-11 16-12 15-10 19-9 18-6 17-4zm180 35-21 3-15 4-29 12-19 9-19 10-27 15-24 14-28 17-41 26-23 15-2 1h-12l-6-4-3-6v-12l-36 4-40 6-40 8-36 9-29 9-29 11-26 12-22 12-18 12-13 10-14 12-13 13-9 11-10 13-11 18-8 16-8 18-9 28-6 26-3 18v7h-2l-4 46-1 18-1 34-1 91v282l2 117 1 241 4 13 5 9 8 9 14 9 16 6 14 3 23 2h12l22-2 21-5 16-8 8-6 7-7 5-8 4-12 1-5 9-117 10-117 9-94 4-26 6-26 7-20 9-19 9-14 9-11 12-12 13-9 17-9 18-6 14-3 16-2 34-1 16-5 11-6 13-10 14-14 11-15 11-19 9-20 9-27 6-26 4-28 1-13v-14l-10-2-16-5-13-8-10-9-6-7v-9l4-4 2-1 9 1 13 13 12 7 11 3h13l13-4 10-7 8-8 8-14 5-5h9l5 5v8l-7 13-7 9-9 9-13 8-9 4-3 37-4 26-6 26-10 30-11 24-10 17-8 11-8 10-15 15-13 9 3 2 34 8 27 8 36 12h4l1-10 4-6 5-3h12l6 4 3 5 1 390 4-5 7-12 11-14 8-7 8-5 9-3h13l6 1 10-15 11-12 10-6 7-2h8l9 3 9 6 4 2 2 4 7 8 9 15 10 21 5 13 9 3 10 7 9 11 11 21 9 25 6 26 2 12v28l-4 15-7 14-9 11-6 5v1h44l31-3 24-4 21-5 21-7 21-10 12-8 10-8 9-9 10-14 7-16 4-16 1-9 1-301 4-7 5-3 9-1 7 3 4 4 2 5 1 27 25 4 35 3h45l52-4 45-5 1-1 1-22 4-6 8-4 10 1 7 6 2 6 1 220 3-4 10-16 12-13 8-6 8-4 9-2 15 1 12-17 11-11 10-5 3-1h13l9 4 8 6 7 7 10 15 10 19 8 20 12 5 10 9 7 9 10 19 9 25 6 25 3 21v15l-3 15-5 13-7 11-6 7-6 5v1h36l36-3 30-5 20-5 20-7 13-6 16-9 10-8 10-9 9-12 8-15 5-17 2-14V744l-5 1-11 5 14-25 9-20 9-25 7-28 5-32 1-11 1-34-1-30-3-34-5-33-6-28-8-29-9-26-11-26-11-23-14-24-12-18-14-19-12-14-9-10-14-15h-2v-2l-8-7-11-10-14-11-18-13-17-11-19-11-27-14-28-12-34-12-32-9-26-6-33-6-40-5-26-2-20-1h-119l-113 2-123 3 1 5 11 27 10 31 7 28 6 32 5 37 4 48 1 18v57l-1 17 45 4 20 4 18 6 13 7 10 9 8 11 7 14 5 17 2 16v13l-2 18-5 21-8 20-9 16-10 13-12 12-11 10-14 9-16 8-20 6-17 3-25 2-65 1-8 5-4 6-13 64-4 7-5 3-4 1h-49l-6-3-2-8 20-103v-4l-9 1-20 4-15 5-11 6-10 9-7 10-4 13v19l-3 7-4 4-5 2h-8l-6-3-4-5-2-9v-13l3-16 5-13 6-10 9-10 9-8 13-8 21-8 48-10 21-7 21-10 13-9 10-8 14-14 12-17 12-23 8-22 6-24 4-24 3-34v-61l-3-44-5-42-7-38-7-28-12-36-9-20-11-21-11-16-8-10-9-10-7-7-17-13-21-11-18-6-16-3-9-1z" />
    <path fill="#363254"
        d="M1399 419h121l31 3 25 5 16 6 12 6 12 11 8 11 6 12 5 16 2 14v19l-3 22-6 21-5 12-8 15-8 11-12 14-12 11-14 10-15 8-17 6-25 5-24 2-66 1-9 6-3 8-12 60-4 7-6 4-4 1h-49l-6-3-2-3v-11l58-296 3-7 6-5z" />
    <path fill="#FCFCFD"
        d="m691 38 20 1 21 4 18 6 16 8 13 8 16 12-2 1-3-1v-2l-9-2-19-4-8-1h-37l-27 4-24 6-24 8-30 13-27 14-20 12-17 11-23 15-30 20-28 19-38 26-6 3h-15l-6-3-3-5v-9l1-3-9 2-43 8-29 7-32 9-29 10-26 11-20 10-22 13-14 10-14 11-13 12-10 10-9 11-10 14-8 13-12 23-8 21-6 19-6 25-5 30-3 29-2 29-1 28-1 63-7 3-27 18h-3l-1-44 1-84 1-34 3-44 2-20h2l1-14 6-29 7-24 8-22 9-19 12-20 12-16 12-14 13-13 11-9 17-13 21-13 25-13 26-11 28-10 27-8 38-9 43-8 52-7 12-1v12l3 6 6 4h12l18-11 10-7 38-24 20-12 22-13 21-12 24-13 15-8 24-11 15-6 27-5z" />
    <path fill="#363254"
        d="M1121 332h47l7 3 2 3v11l-11 57 1 7 4 4 2 1 50 1 31 2 21 3 18 5 10 5 8 7 7 11 4 9 3 14v19l-4 24-25 127-3 7-6 5-5 2h-50l-6-3-3-6 1-9 23-118 2-14v-20l-3-7-6-5-9-3-5-1h-65l-8 6-3 8-30 153-3 11-7 6-5 2h-49l-6-3-2-3v-11l26-133 32-163 3-7 6-5z" />
    <path fill="#FAFAFC"
        d="M1119 317h50l10 3 6 4 5 6 2 5 1 11-11 58h44l39 3 21 4 15 5 11 6 10 9 8 11 6 13 3 11 1 7v24l-6 34-23 117-5 12-8 8-10 5-5 1h-52l-9-3-6-4-6-8-2-7v-8l22-113 4-25v-16l-10-2-59-1-2 13-29 148-5 12-9 9-9 4-5 1h-51l-9-3-6-4-5-6-3-10 1-12 14-72-2 4-8 18-9 15-10 13-11 12-12 11-14 10-12 7-17 7-17 5-26 4-15 1-65 1-3 12-10 50-6 12-8 7-9 4-5 1h-51l-9-3-6-4-6-8-2-8 1-13 18-92 2-4 11-2h4l-1 9-19 98 2 8 6 3h49l7-3 4-4 3-8 12-60 4-6 8-5 65-1 25-2 25-5 19-7 16-9 14-11 8-7 7-8 9-11 9-15 8-18 5-17 3-17 1-11v-13l-2-16-5-17-8-16-8-10-9-8-16-8-15-5-20-4-45-4 2-15h14l38 4 21 5 16 6 16 9 12 11 10 15 7 14 6 20 2 14v25l26-133 11-55 5-9 5-5 9-6zm2 15-8 3-5 5-4 16-34 173-22 113v11l5 5 3 1h49l8-4 5-6 19-95 13-67 3-8 8-6h65l12 3 6 4 3 3 2 6v20l-5 30-21 107 1 7 5 5 3 1h50l8-4 5-6 18-90 11-57 1-8v-19l-4-17-7-13-8-9-11-6-15-5-17-3-24-2-16-1-50-1-4-2-3-6 1-10 10-51v-11l-5-5-4-1z" />
    <path fill="#B2B8DF"
        d="M1041 115h60l125 1 43 3 40 5 27 5 35 8 30 9 20 7 27 11 25 12 24 13 25 16 17 13 14 11 11 10 8 7 17 17-1 6-8 5-9-6-14-10-17-11-21-12-23-12-28-12-28-10-26-8-38-9-28-5-38-5-41-3h-146l-235 5-4-10-8-23-9-21v-3l123-3z" />
    <path fill="#7887C4"
        d="m445 791 10 1 38 10 46 15 13 5v331l-2-3-6-22-8-20-8-13-4-5-3-3-10-30-8-17-8-12-5-6-10-6-9-1-8 3-8 6-9 12h-1z" />
    <path fill="#FAFBFD"
        d="M1398 404h124l32 3 24 5 15 5 16 8 10 7 7 6 11 15 8 17 4 12 3 18v25l-3 21-5 19-8 20-9 16-8 11-11 13-9 9-11 9-15 10-16 8-21 7-22 4-24 2-64 1-3 12-10 50-6 12-8 7-9 4-5 1h-50l-10-3-6-4-6-9-2-8 2-16 33-168 24-123 5-12 4-5 9-6zm1 15-8 4-4 4-4 16-34 173-22 113v11l5 5 3 1h49l7-3 5-5 3-8 12-60 4-6 7-4 66-1 24-2 25-5 17-6 15-8 11-8 10-9 8-7 9-11 8-11 11-21 6-19 4-20 1-10v-19l-3-18-6-17-8-13-9-10-9-7-12-6-18-6-21-4-31-3z" />
    <path fill="#7887C4"
        d="m1369 1086 10 1 8 5 5 5 7 8 8 13 10 21 4 11-1 3-6 4-8 8-8 13-8 17-9 27-5 23-2 16v15l3 15 6 15 7 10 4 6-7 3-5 1h-20l-12-4-11-6-12-11-9-12-7-15-4-14-2-13v-19l3-23 6-28 8-26 8-21 8-16 7-12 9-11 9-7zM691 1097l10 2 8 6 7 7 9 14 8 16 6 14 2 7-9 7-8 9-9 16-8 19-7 23-5 26-1 9v15l3 16 7 16 8 11 2 3-7 3-11 2h-8l-14-3-14-7-12-11-6-7-8-14-5-13-3-12-1-8v-21l3-22 6-28 8-26 8-21 8-16 7-12 10-12 11-7z" />
    <path fill="#B2B8DF"
        d="M68 554h1v126l-9 250-4 131-1 60v75l-1 7-2-2h-3l-1 7-1-3v-7h-2l-1-5-2-24-3-25-3-43-3-64-2-85-1-69V617h1v21l8-4 23-16 6-1z" />
    <path fill="#363254"
        d="m321 367 9 1-1 6-9 10-13 10-19 12-15 9 9-3 13-3h22l12 3 13 7 9 8 7 11 3 9 1 5v13l-3 13-7 14-11 13-10 8-15 8-17 5h-24l-14-4-12-7-9-9-6-11-4-6-7-10-4-10-2-9v-19l4-16 7-13 8-10 12-9 14-8 25-10 21-6z" />
    <path fill="#7988C4"
        d="M1462 470h44l20 2 14 4 10 6 8 9 4 11v27l-4 19-5 15-9 16-9 10-11 7-14 5-24 5-26 2h-25l-5-2-5-6v-8l21-107 4-8 6-5z" />
    <path fill="#7887C4"
        d="M748 1171h6l8 5 7 8 8 14 7 16 7 21 5 22 2 18v9l-2 13-5 14-7 10-6 7-9 6-12 4h-12l-10-3-11-7-7-7-6-10-5-12-2-10v-20l4-24 7-24 8-20 8-15 11-12zM1427 1160h8l6 4 9 10 12 23 10 30 5 25 1 10v13l-3 15-8 16-6 8-11 8-10 4-5 1h-9l-13-4-11-8-7-8-8-16-3-14v-19l4-24 7-24 8-20 8-15 9-11zM903 471h19l15 3 12 5 10 9 4 8 2 7v25l-4 20-7 19-9 14-6 7-10 7-12 5-22 5-15 2-17 1h-25l-5-2-5-6v-6l13-10 12-11 9-11 9-12 9-15 10-21 6-16 6-22zM507 1093l6 1 6 5 8 13 8 20 7 26 3 19v23l-4 15-6 11-6 7-10 6-8 2-10-1-11-6-8-9-6-12-3-11-1-14 2-20 5-23 8-24 8-16 6-8z" />
    <path fill="#7887C4"
        d="M469 1025h8l6 4 7 8 10 19 9 25v2l-11 4-6 5-9 14-7 16-6 19-5 23-2 13v23l4 18-10-3-8-6-8-8-8-14-5-15-2-14v-16l3-24 5-23 7-24 8-20 9-16 9-9zM1187 1098l6 1 5 4 7 11 8 18 6 20 4 18 2 14v19l-4 16-5 10-9 10-8 5-11 2-9-2-10-6-7-8-6-12-3-11-1-8v-9l2-18 5-23 7-21 9-19 8-9z" />
    <path fill="#7887C4"
        d="M1149 1030h8l6 4 6 7 8 14 8 20 4 13-10 3-8 7-9 14-8 20-6 21-4 20-1 8v26l4 16-10-3-9-7-7-7-8-14-5-15-2-12v-20l3-23 6-27 10-30 9-19 7-9z" />
    <path fill="#7887C4"
        d="m1230 986 2 1v65l-1 102-2-4-6-20-7-17-7-12-8-9-10-30-9-19-10-14-9-7-6-2h-8l-10 5-9 9-4 6h-1v-45l47-3 51-5zM516 31h11l17 2 21 6 9 4-3 3-26 14-24 14-30 18-13 8-5 1-55 4-29 3h-8l5-5 14-13 11-9 13-11 20-15 13-8 15-7 20-6 11-2z" />
    <path fill="#F9F9FC"
        d="M1462 470h44l20 2 14 4 10 6 8 9 4 11v27l-4 19-5 15-9 16-9 10-11 7-14 5-24 5-26 2h-25l-5-2-5-6v-8l21-107 4-8 6-5zm1 15-2 3-20 102 1 3h18l24-2 24-5 12-5 8-7 7-9 7-16 4-17 1-6v-21l-3-8-7-6-13-4-22-2z" />
    <path fill="#7887C4"
        d="M634 1131h7l4 2-10 24-8 24-6 24-5 30-1 12v13l2 16 5 17 8 17-9-1-13-5-11-7-10-9-7-11-5-11-2-10v-17l3-17 6-21 8-20 8-16 7-11 9-11 8-7 8-4zM1313 1120h9l3 2-9 21-9 27-6 24-5 30-1 12v12l3 21 5 15 7 15-12-2-14-6-10-8-5-5-6-7-7-14-3-12v-17l3-17 6-21 10-25 10-18 10-13 7-7 10-6z" />
    <path fill="#363254"
        d="M253 274h42l26 4 21 6 7 4 1 6-4 4-6 2h-7l-16-4-6-1h-29l-19 3-21 6-15 6-14 8-12 9-4 4h-2v2h-2l-2 4-9 10-7 3h-8l-7-3-5-5-3-8 2-9 7-9 12-12 13-9 15-8 16-6 21-5z" />
    <path fill="#7887C4"
        d="M1887 252h32l18 3 18 6 9 6 3 3-1 5-7 6-11 5-19 5-16 2h-25l-32-3-32-5-27-6-15-5 3-3 24-7 35-7 31-4z" />
    <path fill="#F9FAFC"
        d="M903 471h19l15 3 12 5 10 9 4 8 2 7v25l-4 20-7 19-9 14-6 7-10 7-12 5-22 5-15 2-17 1h-25l-5-2-5-6v-6l13-10 3-3h2l-1 9-1 2 33-1 21-3 16-4 12-6 7-7 7-12 6-18 3-16v-19l-3-9-5-4-10-4-11-2-19-1 1-10z" />
    <path fill="#FBFBFD"
        d="m303 425 13 1 11 4 9 6 6 7 5 12v16l-2-2-4-13-8-11-9-6-10-3h-9l-9 3-7 5-4 7v3l20 10 1 2-16 11-3 2 1 5 6 8 9 7 9 3 13 1-5 4-8 4-11 3h-18l-12-4-9-6-6-7-4-8-2-11 1-11 4-11 6-9 6-7 10-7 11-5 7-2z" />
    <path fill="#7E8CC6"
        d="m421 135 2 1-4 4-36 4-40 6-40 8-36 9-29 9-29 11-26 12-22 12-18 12-13 10-14 12-12 12-9 11-10 13-11 18-8 16-8 18-9 28-6 26-4 25h-1v-9l5-32 6-26 10-30 14-29 14-21 9-11 11-12 9-9 11-9 15-11 16-10 22-12 25-11 28-10 30-9 34-8 37-7 49-7z" />
    <path fill="#7C8AC6"
        d="M298 418h9l14 3 11 6 8 7 6 9 3 9 1 12-2 11-2 4v-24l-5-12-7-8-14-7-10-2-15 1-12 4-11 6-8 7-7 10-4 9-2 11 1 11 4 10 6 8 9 6 12 4h18l13-4 8-4 3-1v-2l6-1-5 5-10 7-13 5-10 2h-14l-15-4-11-7-8-9-5-10-2-16 2-11 5-12 8-11 7-7 11-7 11-5z" />
    <path fill="#A4B9E4"
        d="M688 1107h7l6 4 7 7 7 12-1 2-2-1h-11l-11 7-9 10-10 15-9 17-8 19-7 21-5 21-1 6h-1v-9l4-28 6-29 9-31 8-19 7-12 8-9zM1368 1096h7l8 5 9 12 3 6-1 2-4-2-9 1-10 6-10 11-10 15-10 19-10 25-7 24-3 17h-1v-10l4-28 6-29 9-31 8-19 6-11 9-10z" />
    <path fill="#7887C4"
        d="m1817 315 38 5 36 3 27 1 3 4 1 9-5 6-8 4-9 2h-15l-14-3-15-6-21-11-17-12zM1638 266h107l-3 7 2 11h-93l-13-17zM1876 199h15l10 3 6 4 3 4v7l-2 4-35 2-39 5-14 2 5-5 15-11 14-8 12-5z" />
    <path fill="#A4B9E4"
        d="M628 1143h7l4 2-3 9-4 11-9 6-5 4-7 8-9 12-10 17-7 17-4 14h-1l1-12 6-25 7-21 8-16 6-10 9-10 8-5zM1307 1132h9l3 1-1 5-6 16-7 4-11 10-10 13-11 18-7 16-4 13-2 4 1-12 6-25 7-21 8-17 8-12 9-9zM472 1031l6 2 7 8 4 7v3h-9l-6 4-8 9-9 16-7 15-9 27-4 20h-1v-10l4-27 6-27 6-20 6-14 7-9 4-3z" />
    <path fill="#B3B9E0"
        d="m1150 1037 7 1 5 5 5 8v3l-8 2-6 4-8 9-10 18-8 19-7 21-2-2 5-29 7-26 8-20 7-10z" />
    <path fill="#7887C4"
        d="M1231 1221h1l4 23 8 24-20-4-25-8v-2l9-4 6-4 8-8 8-14zM551 1217h1l1 20 3 17 1 8-21-5-17-6v-2l14-7 9-9 8-14z" />
    <path fill="#A5B9E4"
        d="m1430 1168 7 1 9 8v2l-10 2-8 6-8 8-8 13-7 15-4 17h-1v-9l3-17 5-17 8-16 6-8zM750 1179l6 1 8 6 2 4-9 2-8 5-9 9-8 13-7 15-3 11-1 7h-1v-10l3-17 5-17 8-16 9-10zM508 1100l6 1 7 7v2l-8 2-8 6-7 10-8 16-4 15-1 5h-1l1-15 4-18 6-16 6-9z" />
    <path fill="#B3B9E0" d="M1187 1106h6l5 4 2 4-9 3-6 5-9 13-6 12h-3l4-16 5-12 6-9z" />
    <path fill="#F6F6FB" d="M325 452h5l5 5 3 6v9l-3 4h-6l-6-7-1-2v-12z" />
    <path fill="#96A0D2" d="m511 116 2 1-23 15-16 10-31 21h-3v-2l18-11 10-7 38-24z" />
    <path fill="#8C99CE" d="m672 37 19 1v1l-17 1-21 4-3-1 12-4z" />
    <path fill="#8693CB" d="M45 366h2l-2 12-3 1 2-12z" />
    <path fill="#96A1D3" d="m672 37 19 1v1l-21 1v-2z" />
    <path fill="#99A3D3" d="M1047 562h1l-1 11-1 5-3-2 1-5z" />
</svg>