<svg xmlns="http://www.w3.org/2000/svg" viewBox="0 0 965 1044">
    <path fill="none" d="m2.72 243.22 23.48-38.26m412.17 796.52 48.7 1.74M2.72 377.13 6.2 620.61" />
    <path fill="#fff" stroke="null"
        d="M-1.00005 50.97656C-1.00005 23.27697 23.33483 0 51.07818 0h862.86474C941.68627 0 965 23.27697 965 50.97656v942.0469c0 27.69959-23.31374 50.97656-51.05708 50.97656H51.07818c-27.74335 0-51.05708-23.27697-51.05708-50.97656l-1.02114-942.0469z"
        opacity="undefined" />
    <path fill="#02629D"
        d="M461 18.81h43l29 3 29 6 24 7 24 10 19 10 24 14 26 15 28 16 24 14 28 16 26 15 28 16 17 10 52 30 18 10 17 10 26 15 2 2v392l-4 24-6 24-9 27-11 25-10 19-12 19-14 19-11 13-11 12-17 16-11 9-17 12-16 9-24 14-20 11-24 14-18 10-17 10-27 15-17 10-23 13-28 16-23 13-24 14-18 10-24 14-4 1-1-535-25-14-27-16-27-15-24-14-23-13-17-10-21-12-26-15-45-26-23-13-42-24-24-14-21-12-23-13-21-12-17-10-21-12-26-15-6-4 4-4 18-10 24-14 46-26 24-14 16-9 17-10 18-10 16-9 26-15 23-13 24-14 16-9 24-14 23-12 25-9 23-6 28-5 21-2z" />
    <path fill="#02629D"
        d="m21 262 16 8 17 10 26 15 70 40 17 10 23 13 21 12 26 15 19 11 28 16 24 14 26 15 25 14 24 14 25 14 24 14 23 13 3 2 1 507-2 2-26-15-21-12-26-15-24-14-25-14-22-13-28-16-17-10-25-14-24-14-21-12-26-15-22-13-19-14-10-9-8-7-13-13-7-8-14-18-14-22-11-20-11-24-9-24-8-27-2-9v-11l5 2 23 13 24 14 28 16 78 45 23 13 24 14 26 15 21 12 26 15 16 9 19 11 5 3 1-51-9-6-25-14-22-13-23-13-24-14-26-15-16-9-45-26-21-12-22-13-46-26-18-11-1-2 63-36 27-15 24-14 16 8 17 10 21 12 26 15 25 14 17 10 16 9 17 10 23 13 5 3 1-4v-50l-28-16-26-15-18-10-24-14-16-9-24-14-25-14-24-14-77-44-26-15-23-13-11-7-1-27 1-106z" />
    <path fill="#FEFEFE"
        d="m471 134 27 1 22 3 29 7 23 8 17 8 22 13 26 15 24 14 23 13 17 10 21 12 26 15 24 14 26 15 19 11 3 3-1 279-3 20-6 25-6 18-10 23-11 20-11 16-9 12-13 15-11 11-8 7-10 8-11 8-24 14-21 12-26 15-24 14h-4v-51l5-4 25-14 24-14 23-13 16-13 12-11 7-8 10-12 11-17 11-21 10-27 5-23 2-15V363l1-42-5-2-21-12-26-15-28-16-45-26-42-24-17-10-26-15-19-9-20-6-22-4-23-2-24 1-22 3-25 6-20 8-26 15-18 10-22 13-9 5-4-1-25-14-18-11 5-4 21-12 26-15 25-14 17-10 16-8 19-7 30-7 22-3 24-1z" />
    <path fill="#FEFEFE"
        d="M452 314h41l21 3 19 5 19 7 21 11 24 14 26 15 21 12 12 7v129l-5 22-6 17-12 25-13 21-8 11h-2V413l-5-2-23-13-24-14-21-12-78-45-15-9-1-2 9-2z" />
</svg>