<svg xmlns="http://www.w3.org/2000/svg" viewBox="0 0 1200 1040">
    <path fill="#0E68C1"
        d="M745 0h455l-8 14-435 754-14 24-13 23-14 24-16 28-14 24-16 28-14 24-16 28-10 17-16 28-10 17-4 6-4-4-11-20-14-24-16-28-14-24-12-21-135-234-16-28-5-8 2-5 14-25 15-26 28-48 14-25 14-24 15-26 10-17 16-28 30-52 14-24 16-28 30-52 14-24 16-28 30-52 8-13 6-11 16-28 30-52 14-24 16-28z" />
    <path fill="#0B98F8"
        d="M745 0h455l-8 14-435 754-14 24-13 23-14 24-16 28-14 24-16 28-14 24-16 28-10 17-16 28-10 17-1 2h-2l2-6 6-15 5-12 7-20 12-36 12-37 9-28 12-39 16-55 16-59 16-64 10-43 10-48 8-41 8-46 7-44 5-37 5-43 4-49 2-48 1-57-2-57-3-31-4-31-5-31-9-38-5-16z" />
    <path fill="#AFDCFE"
        d="M0 0h631l-2 5-14 25-10 17-195 338-16 28-14 24-12 21-14 24-16 28-14 24-8 13-4-5-13-23-14-24-12-21-15-26-14-24-30-52-16-28-14-24-30-52-16-28-10-17-16-28-14-24-16-28-11-19-15-26-14-24-16-28-14-24L2 5 0 3z" />
    <path fill="#7BC3FE"
        d="M564 0h67l-2 5-14 25-10 17-195 338-16 28-14 24-12 21-14 24-16 28-14 24-8 13-4-5-2-6-3-16-8-44-5-37-3-31-2-55 2-51 2-24 3-19 5-25 8-28 9-25 12-27 14-24 11-16 11-13 7-9 6-5 6-7 11-9 12-10 12-8 13-8 23-12 23-10 31-10 25-6 19-4z" />
</svg>