<svg xmlns="http://www.w3.org/2000/svg" viewBox="0 0 2048 1243">
    <path fill="#FDFDFD"
        d="m988 0 3 2 41 1 28 2 42 6 29 6 32 8 29 9 37 14 25 11 23 11 23 13 19 11 24 16 18 13 18 14 13 11 11 9 15 14 32 32 9 11 11 12 13 17 10 13 12 17 11 17 17 28 5 9 31-2h37l43 4 31 5 36 9 36 12 26 11 28 14 28 17 15 10 18 13 14 11 10 9 8 7 13 12 15 15 9 11 9 10 13 17 13 18 11 18 11 19 15 30 11 27 12 36 7 30 6 34 4 31v59l-6 42-8 39-10 34-11 29-11 24-12 24-12 20-8 12-12 17-11 14-9 11-9 10-7 8-20 20-8 7-14 12-14 11-18 13-21 13-22 13-15 8-32 14-28 10-27 8-31 7-41 6-24 2h-54l-3-1v2h-51v-2l-2 1h-17l-5-1v2H751v-2l-3 1H381l-37-4-28-5-32-8-32-11-20-9-25-12-16-9-15-10-19-14-14-11-14-12-28-28-9-11-12-15-14-19-13-21-15-29-11-25-8-22-8-29-5-23-5-33-1-9v-59l8-49 8-32 10-29 11-26 15-29 12-19 11-16 10-13 9-11 9-10 7-8 19-19 8-7 16-13 19-14 20-13 18-10 19-10 19-8 26-10 24-7 27-6 27-4 35-3 4-4 12-36 8-21 11-25 12-25 12-22 10-17 14-22 10-14 11-15 11-14 11-13 12-14 16-17 24-24 8-7 13-11 10-8 14-11 15-11 16-11 15-10 18-11 18-10 19-10 19-9 27-11 35-13 41-12 31-7 36-6 27-3 19-1 39-1z" />
    <path fill="#FA8F18"
        d="m988 0 3 2 41 1 28 2 42 6 29 6 32 8 29 9 37 14 25 11 23 11 23 13 19 11 24 16 18 13 18 14 13 11 11 9 15 14 32 32 9 11 11 12 13 17 10 13 12 17 11 17 17 28 5 9 31-2h37l43 4 31 5 36 9 36 12 26 11 28 14 28 17 15 10 18 13 14 11 10 9 8 7 13 12 15 15 9 11 9 10 13 17 13 18 11 18 11 19 15 30 11 27 12 36 7 30 6 34 4 31v59l-6 42-8 39-10 34-11 29-11 24-12 24-12 20-8 12-12 17-11 14-9 11-9 10-7 8-20 20-8 7-14 12-14 11-18 13-21 13-22 13-15 8-32 14-28 10-27 8-31 7-41 6-24 2h-54l-3-1v2h-51v-2l-2 1h-17l-5-1v2H751v-2l-3 1H381l-37-4-28-5-32-8-32-11-20-9-25-12-16-9-15-10-19-14-14-11-14-12-28-28-9-11-12-15-14-19-13-21-15-29-11-25-8-22-8-29-5-23-5-33-1-9v-59l8-49 8-32 10-29 11-26 15-29 12-19 11-16 10-13 9-11 9-10 7-8 19-19 8-7 16-13 19-14 20-13 18-10 19-10 19-8 26-10 24-7 27-6 27-4 35-3 4-4 12-36 8-21 11-25 12-25 12-22 10-17 14-22 10-14 11-15 11-14 11-13 12-14 16-17 24-24 8-7 13-11 10-8 14-11 15-11 16-11 15-10 18-11 18-10 19-10 19-9 27-11 35-13 41-12 31-7 36-6 27-3 19-1 39-1zm-36 63-31 3-33 5-33 7-25 7-37 12-22 9-15 6-40 20-24 14-21 14-18 13-13 10-10 8-10 9-11 9-38 38-9 11-12 14-10 14-6 8-12 17-9 14-9 15-10 17-12 24-13 29-13 35-9 30-5 17-6 9-7 5-9 3-39 2-36 4-35 8-30 10-24 10-24 12-23 15-15 11-10 8-15 14-8 7-15 15-9 11-12 16-14 21-7 11-12 24-11 28-5 15-6 23-6 32-2 31v22l3 31 4 24 8 30 7 21 5 11 8 18 12 22 11 17 10 14 11 14 18 20 13 12 12 10 17 13 16 11 15 9 23 12 16 7 25 9 25 7 26 5 22 3 19 1h1209l27-2 37-5 23-5 25-7 32-12 22-10 19-10 23-14 17-12 16-12 14-12 8-7 19-19 7-8 8-9 10-13 14-19 12-19 15-27 11-25 8-21 8-26 8-36 4-33 1-14v-36l-2-25-4-29-7-33-12-37-11-26-13-25-14-23-10-15-8-10-10-13-9-11h-2l-2-4-19-19-8-7-12-11-14-11-18-13-17-11-22-12-24-12-31-12-28-8-25-6-24-4-15-2-15-1h-44l-27 2-17 2-10-1-10-5-7-8-14-27-12-20-11-18-13-18-10-13-18-22-9-10-7-8-35-35-8-7-22-18-16-12-18-13-18-11-24-14-27-14-32-14-24-9-31-10-36-9-27-5-19-3-41-4z" />
    <path fill="#121010"
        d="M997 661h10l12 3 8 5 8 8 7 11 2 1 2-6 6-8 8-7 11-5 10-2h9l13 3 11 6 7 7 7 14 2 11v128l-1 5-2 1h-38l-2-3-1-115-3-9-5-5-3-1h-13l-7 4-5 6-3 11-1 16-1 95-2 1h-38l-1-1-1-18v-80l-1-18-4-10-5-5-6-2h-7l-8 3-6 9-3 14-1 105-3 3h-37l-3-3V670l1-4 3-1h35l2 4v20h2l2-5 6-9 9-8 8-4zM1529 661h9l17 3 14 6 10 8 7 7 9 15 6 16 4 19v33l-4 18-7 17-7 11-6 7-10 8-16 8-14 3h-13l-13-2-12-5-14-10-8-10-8-14-5-13-3-12-1-7v-33l3-16 6-16 7-13 9-11 13-9 11-5zM1218 660h26l17 4 12 6 10 9 6 10 3 10 1 7 1 80 4 10 9 15-2 4-13 12-11 9-3 2-5-1-5-4-7-8-5-8-4 2-8 8-12 7-13 4-17 1-14-2-14-7-8-8-7-14-2-12v-10l2-14 8-16 9-9 11-7 12-5 14-3 31-4h5l-1-18-4-10-5-4-7-2h-9l-10 3-5 4-8 16h-10l-21-2-6-3-1-5 4-12 5-10 7-8 10-7 10-5 14-4zM809 660h25l17 4 12 6 10 9 5 8 4 11 1 14 1 74 5 12 7 11 1 4-5 5-11 10-11 9-5 1-10-9-6-7-3-5-2-1-2 4-8 7-12 7-12 4-17 1-15-2-14-7-8-8-6-12-3-14v-10l2-12 5-13 7-9 9-8 16-8 16-4 37-5-1-18-3-8-6-5-7-2h-8l-10 3-8 7-5 12-1 1h-10l-20-2-7-2-1-5 4-13 6-11 7-8 13-8 9-4 11-3zM1707 661h10l16 4 11 8 7 10 4 10 2 13v128l-1 2h-40l-1-1-1-102-1-14-4-11-6-5-3-1h-10l-8 5-5 7-4 13-1 104-3 5h-37l-3-2V667l2-2h37l1 2v25l3-3 6-11 6-7 11-7zM1335 664h107l3 3 1 11-1 16-7 11-13 18-13 19-10 14-12 17-4 6 3 1 25 2 17 5 12 5 4 4 2 10v20l-3 6-7-1-15-6-17-4-6-1h-29l-16 3-15 5-9 4h-5l-2-4v-31l3-8 7-11 8-11 14-20 13-19 14-20 6-9h-54l-4-2-1-2v-25l2-5z" />
    <path fill="#FA8F18"
        d="m617 488 7 1 41 12 30 9 6 2 1 2v125l-10-3-75-25-1-15V489zM295 667l25 7 44 13 16 5v127l-10-3-75-25-1-23V668zM698 668h4v121l-1 2-84 28-1-83v-42l5-3 42-13zM509 667l25 7 60 18 1 2-1 125-5-1-47-16-32-11-1-1-1-117zM831 487l12 3 26 8 40 12 7 3v126l-11-3-72-24-2-2zM403 847l11 3 60 18 13 4v126l-10-2-66-22-9-4V849zM592 847h3v36l-1 87-12 5-69 23h-3l-1-11V872l41-12zM1020 487h3v123l-9 4-75 25-1-3V512l63-19zM486 667h1v124l-72 24-8 3h-4l-1-28v-97l8-3 36-11zM806 487h2v124l-84 28-1-86v-38l2-3 19-6 47-14z" />
    <path fill="#121010"
        d="M977 856h16l1 1 1 19v21l1 2 10-8 9-3h10l9 2 10 6 7 7 7 14 3 12v24l-4 17-7 12-8 8-10 5-3 1h-18l-9-4-8-6v-2h-4l-3 9-5 2-6-2-1-2V860zM802 889l9 1 5 10 15 55 3 3 2-10 13-47 4-10 7-2 7 1 1 1v7l-14 53-12 42-3 4h-13l-3-4-10-32-7-26-1-4h-2l-3 15-12 45-4 6h-14l-5-13-18-64-7-26 1-3 2-1h15l3 5 7 25 9 34 3 3 2-11 12-46 4-9zM1612 889h12l14 4 8 6 8 9 5 11 3 12v13l-3 2-65 1v10l3 10 6 8 7 4 2 1h14l8-5 7-9 2-3h8l8 3 1 4-5 10-5 6-10 7-12 4h-20l-10-3-9-6-7-7-6-11-4-15v-21l3-13 6-12 9-10 9-6zM911 889h14l10 3 9 5 7 7 8 16 2 7 1 16-3 3-65 1v9l3 11 6 8 6 4 3 1h13l8-4 6-7 4-6h8l8 3-1 8-6 9-7 7-10 5-8 2h-19l-10-3-9-6-8-8-6-12-3-13v-22l3-12 7-14 7-8 11-7zM1224 889h13l14 4 8 6 7 8 6 13 3 16v8l-3 2-66 1 2 15 5 10 7 6 5 2h13l8-4 6-7 3-6h8l9 3v6l-6 10-8 8-10 5-8 2h-19l-10-3-9-6-8-8-6-12-3-13v-20l3-14 7-14 4-5 9-7 8-4z" />
    <path fill="#FDFBF9"
        d="m1532 694 11 1 6 4 5 7 4 16 2 21v17l-2 19-3 13-6 9-5 4-5 2h-10l-8-5-6-10-3-9-2-12-1-27 1-19 4-16 5-8 5-5z" />
    <path fill="#121010"
        d="M1705 889h11l16 4 9 6 6 8 3 6-2 4-6 3-7 1-5-5-5-6-9-4h-11l-7 3-4 4-1 8 3 5 8 4 26 5 11 4 8 7 5 11 1 11-2 9-6 9-8 6-10 4-6 1h-20l-12-3-10-6-7-7-4-8-1-6 3-2 9-2h5l7 11 8 5 4 1h17l8-4 3-4 1-8-3-5-7-4-27-6-10-4-9-7-5-10v-15l4-9 6-7 12-6zM1125 889h12l15 4 9 6 7 9 2 5-1 4-11 4-5-2-8-9-8-4h-13l-8 4-3 7 2 8 6 4 25 5 12 4 8 5 4 5 4 9v16l-4 9-6 7-12 6-9 2h-21l-13-4-9-6-8-9-3-10 3-3 8-2h6l3 5 5 7 8 4 12 2 11-2 5-3 3-4 1-8-4-6-10-4-27-6-11-6-6-7-3-8v-14l4-10 9-8 9-4zM1521 889h7l14 4 8 6 6 7 5 10 2 6v5l-4 3h-11l-4-4-5-12-5-5-9-3-9 2-7 6-5 10-2 8v22l4 14 5 8 8 4h8l8-3 6-9 4-10 1-1h14l3 3-1 7-5 12-7 9-9 6-10 3h-16l-10-3-9-7-7-8-4-8-3-12-1-8v-13l2-14 4-11 6-10 9-8 12-5zM1363 888l7 1 4 8 13 41 9 27 2-3 19-60 4-11 2-2h14l2 1-1 8-13 40-12 36-7 20-4 3h-14l-5-5-13-38-12-36-8-25 1-4z" />
    <path fill="#FA8F18"
        d="m603 629 7 1 35 11 39 12-1 2-17 4-47 13-15 4-63-18-13-3v-2l25-8 48-15zM923 449h7l19 7 43 13 12 4-1 2-73 20h-7l-62-17-11-4 2-2 27-8zM709 449h6l36 12 36 11 2 1v2l-51 14-22 6-11-1-55-15-13-4-1-2 31-10 36-12zM389 629l9 2 29 9 33 10 9 3-1 2-35 9-39 11h-7l-35-10-38-10v-2l59-19zM496 809l6 1 29 9 44 13 2 2-9 3-65 17-8 1-58-16-14-4-1-2 31-10z" />
    <path fill="#FDFAF6"
        d="M1014 904h9l7 4 6 8 4 12 1 5v20l-3 12-4 8-7 6-4 2h-8l-8-3-6-5-4-8-2-6-1-11v-15l2-10 4-8 6-7z" />
    <path fill="#121010"
        d="M1330 890h6l3 2 1 4v9l-2 3-13 3-7 5-7 11-2 7-1 22-1 40-1 1h-14l-3-1-1-3v-97l5-3h10l3 2v9l4-2 6-7 5-3zM1449 888h17l2 2v104l-1 3h-18l-1-1-1-59v-42z" />
    <path fill="#FDFBF8"
        d="M825 753h14v24l-2 10-5 9-6 7-8 4-9 1-7-3-5-4-4-9-1-9 2-10 5-8 7-6 10-4zM1234 753h15v22l-3 13-4 8-5 6-9 5-8 1-9-3-6-7-2-6v-17l4-8 7-7 8-4z" />
    <path fill="#FDF7EF" d="m1228 904 11 1 6 4 6 8 3 8v6l-13 1h-30l-4-1 1-9 7-11 7-5z" />
    <path fill="#FDF7F0"
        d="m1617 904 8 1 7 4 5 6 4 10 1 5-7 2h-38l-4-2 4-11 6-8 6-5zM915 904l10 1 6 3 6 7 4 10v6l-15 1h-28l-4-1v-6l7-13 8-6z" />
    <path fill="#121010" d="m1456 850 7 1 5 4 2 4v8l-5 6-5 2-8-1-6-7v-9l5-6z" />
</svg>