<svg xmlns="http://www.w3.org/2000/svg" preserveAspectRatio="xMidYMid" viewBox="0 0 256 256">
	<path fill="#191919"
		d="m207.9535 52.16179-80.63635-47.8748c-9.58397-5.71599-21.5306-5.71599-31.11458 0l-80.65249 47.8748C5.84867 58.01436-.05794 68.53953.00043 79.86943v95.73346c-.05268 11.32415 5.8532 21.84188 15.54965 27.69149l80.63634 47.85866c9.58495 5.71245 21.52964 5.71245 31.11459 0l80.63634-47.85866c9.70761-5.84857 15.62077-16.37448 15.5658-27.70764V79.86943c.05837-11.3299-5.84824-21.85507-15.54965-27.70764z" />
	<path fill="#999"
		d="M208.41153 52.27668 127.59758 4.29643c-9.60508-5.72857-21.57803-5.72857-31.18311 0L15.58433 52.27668C5.86155 58.14214-.05807 68.6905.00043 80.04535v95.94432c-.05279 11.34909 5.86609 21.88999 15.5839 27.75249l80.81395 47.96406c9.60606 5.72504 21.57706 5.72504 31.18312 0l80.81395-47.96406c9.729-5.86146 15.65518-16.41055 15.60009-27.76867V80.04535c.0585-11.35485-5.86112-21.90321-15.58391-27.76867zM99.23017 246.80301l-80.81395-47.96406c-7.98613-4.83931-12.85036-13.5114-12.81652-22.84928V80.04535c-.03706-9.33871 4.828-18.01228 12.81652-22.84928L99.23017 9.21583c7.86518-4.69225 17.67035-4.69225 25.53553 0l80.74922 47.98024c6.65664 4.03184 11.19758 10.79293 12.41175 18.48009-2.68625-5.71232-8.72221-7.282-15.76147-3.23644l-76.39621 47.31677c-9.53132 5.5505-16.5544 11.81302-16.57058 23.30238v94.21282c0 6.87744 2.76716 11.32755 7.03926 12.63831-1.399.25638-2.81749.39173-4.23974.40455-4.49396-.00329-8.90417-1.21624-12.76776-3.51154z" />
	<path fill="#3AB14A"
		d="m187.00732 185.05984-20.08643 12.0131c-.53794.21621-.89847.72853-.92035 1.30788v5.27995c0 .64587.43595.90422.96879.59743l20.39322-12.40062c.49941-.37439.73832-1.00309.61357-1.61467v-4.63408c-.01615-.59743-.4844-.85578-.9688-.54899z" />
	<path fill="#2F3A3E"
		d="M144.26295 140.83187c.64587-.32294 1.17871 0 1.19485.92036l.06459 7.00764c2.41548-1.09736 5.11027-1.42435 7.7181-.93651.50054.12918.71045.80734.51669 1.61467l-1.53393 6.15187c-.11629.46428-.35623.88836-.69431 1.22714-.11873.11715-.2549.2152-.40366.29064-.18253.09872-.39306.13287-.59743.09688-2.54286-.5631-5.20474-.13582-7.4436 1.19486-3.27367 1.47469-5.41355 4.69392-5.50601 8.28322 0 3.22933 1.61467 4.1174 7.24984 4.21428 7.44361.12917 10.67294 3.37465 10.75367 10.88284-.17722 7.83711-3.7908 15.20007-9.88175 20.13486l.12918 6.87847c-.01148.85431-.45524 1.64457-1.17871 2.09907l-4.06895 2.34126c-.64587.32293-1.17871 0-1.19485-.90421v-6.76545c-3.48768 1.4532-7.02379 1.79228-9.28432.88807-.41982-.16147-.61358-.79119-.43596-1.51778l1.46934-6.21646c.11173-.49196.36419-.94078.7266-1.29173.11494-.1101.24552-.2026.38752-.2745.21052-.09463.45149-.09463.66201 0 2.87841.78041 5.94861.39156 8.54158-1.08182 3.74177-1.80461 6.17348-5.53613 6.31333-9.68799 0-3.48767-1.92145-4.94087-6.45865-4.97317-5.86124 0-11.30265-1.13026-11.41568-9.68798.13487-7.47628 3.60558-14.50062 9.46193-19.14992l-.29064-7.03994c-.0026-.86661.4433-1.67289 1.17871-2.13136l4.02051-2.56731z" />
</svg>