<svg xmlns="http://www.w3.org/2000/svg" viewBox="0 0 1200 1172">
    <path fill="#07A9E6"
        d="M461 140h584l2 1v384l1 195-1 9-10 9-42 42-5 6-7 6-1 2h-2l-2 4-7 6-1 2h-2l-2 4-4 4h-2v2h-2v2h-2l-2 4-7 6-1 2h-2l-2 4-16 16-5 4-1 2h-2l-2 4-12 11-6 7-7 6-5 6-8 7-127 127-4 2H217l-55-1V439l7-8 7-7 7-8 155-155h2l2-4 8-8 6-5 7-8 5-4 7-8 47-47 6-5 6-7 17-17h2l1-3z" />
    <path fill="#FEFDFD"
        d="M590 319h242l2 1v123l-237 1-14 2-15 4-17 8-13 9-8 7-11 14-7 12-6 15-5 21-2 15v17l4 25 7 21 7 13 7 10 11 12 14 10 16 8 13 4 16 3 12 1h187l41 1 1 7-1 116-2 1H644l-57-1-21-2-24-5-20-6-20-8-16-8-20-12-13-11-8-7-13-13-13-17-9-14-10-18-11-27-7-25-4-21-3-25v-43l3-24 5-25 6-21 8-20 8-16 10-17 10-13 8-10 11-12 11-9 14-11 19-12 23-11 24-8 21-5 18-3z" />
</svg>