<svg xmlns="http://www.w3.org/2000/svg" viewBox="0 0 2048 2048">
    <path fill="#BFD3F1"
        d="M1020 522h15l10 4 10 8 601 601 9 14 4 13 1 9v463l-2 27-3 16-5 19-7 18-8 16-11 18-11 14-14 15-8 7-17 13-15 9-16 8-15 6-22 6-25 4-16 1h-211l-10-2-10-5-8-8-6-12-2-15v-7H828l-1 18-4 11-7 9-6 5-9 4-3 1-11 1H581l-20-1-23-4-18-5-22-9-17-9-17-12-11-9-13-12-18-22-11-18-8-16-6-15-6-20-3-16-2-22v-471l3-16 6-12 8-10 586-586 5-6 8-7 7-6 8-4z" />
    <path fill="#2867CD"
        d="M1008 222h39l27 3 28 6 19 6 21 8 23 11 18 11 17 12 11 9 10 9 8 7 579 579 7 8 10 11 15 20 12 19 12 23 10 25 6 19 5 23 3 20 1 11v43l-3 25-5 24-7 23-6 16-5 8-4 3-9-6-758-758-13-10-12-7-14-5-15-3h-20l-15 3-14 5-14 8-14 12-754 754-8 6-5-1-4-5-7-16-8-26-5-24-3-22-1-12v-28l3-29 6-29 8-26 10-24 9-17 12-20 10-13 8-10 12-14 592-592 11-9 14-11 18-12 18-10 23-11 30-10 26-6 21-3zM870 1248h318l16 4 11 6 10 10 3 5 1 410v98H828l-1-60v-248l1-200 4-7 8-8 11-6 12-3z" />
</svg>