<svg xmlns="http://www.w3.org/2000/svg" viewBox="0 0 2048 811">
    <defs>
        <filter id="a">
            <feGaussianBlur in="SourceGraphic" stdDeviation="1" />
        </filter>
    </defs>
    <path fill="#00923F"
        d="M353 0h9l11 3 17 9 24 14 28 16 24 14 28 16 24 14 26 15 28 16 24 14 28 16 24 14 26 15 19 11 9 7 7 9 4 10 1 5v374l-2 9-5 10-6 7-14 9-23 13-24 14-28 16-24 14-26 15-28 16-24 14-78 45-21 12-24 14-15 8-7 2h-14l-10-3-17-9-17-10L99 668l-24-14-28-16-26-15-8-6-7-10-4-10-1-7V225l1-12 4-10 7-9 9-7 28-16L284 36l24-14 28-16 8-4 9-2z" />
    <path fill="#4c4c4c"
        d="M212 227h20l14 3 12 5 12 8 9 9 9 11 11 13 9 11 11 13 9 11 11 13 9 11 12 14 9 11 11 13 9 11 11 13 9 11 12 14 9 11 12 14 9 11 6 7 1-204 3-10 5-9 8-8 12-6 4-1h17l13 5 10 9 6 9 3 9v292l-4 11-6 8-7 6-10 5-13 3h-14l-17-4-12-5-10-7-11-11-9-11-11-13-9-11-11-13-9-11-11-13-9-11-12-14-9-11-11-13-9-11-12-14-9-11-11-13-9-11-22-26-5-5 1 18v174l-2 18-6 12-7 8-16 8-5 1h-12l-12-4-10-7-7-9-4-10-1-4V260l4-12 8-10 11-7 13-4zm1053 36h28l22 3 20 6 17 9 11 9 9 10 8 14 4 11 2 9 1 11v20l-1 1h-47l-1-19-3-12-7-11-11-8-13-5-9-2-9-1h-13l-14 2-13 4-10 6-5 4-6 9-4 13v118l4 13 6 9 7 6 12 6 12 3 7 1h20l17-3 12-5 9-7 6-8 4-10 1-6 1-23h-61l-1-2v-40l1-2h109v71l-2 15-5 15-7 12-9 11-10 8-14 8-16 6-18 4-7 1h-39l-22-4-19-7-11-6-10-8-10-10-8-13-5-13-2-9-1-9V341l3-16 5-13 6-11 12-13 12-9 14-7 15-5 16-3 10-1zm257 5h21l9 1 6 9 14 25 10 17 60 104 14 24 2 3 1-182h45v272l-1 1h-44l-7-10-10-18-14-24-15-26-10-17-14-24-30-52-6-10v-2h-2l1 2v180l-1 1h-44V269l15-1zm-571 0h24l9 1 6 9 14 25 14 24 16 28 14 24 15 26 12 21 14 24v2h2V269l13-1h12l20 1v272l-1 1h-44l-7-10-13-23-28-48-15-26-14-24-15-26-14-24v-2h-2l1 4-1 179h-44l-1-273 13-1zm777 0h52l5 2 10 17 32 52 12 19v2l4-4 11-18 14-22 24-38 6-9 9-1h45l-2 5-15 25-15 24-14 23-15 24-14 23-8 13 1 5 13 21 14 23 13 21 14 23 26 42v2h-56l-12-20-16-26-17-28-11-18-7 10-12 20-12 19-13 21-12 19-2 3h-53l2-5 13-22 17-28 17-29 12-20 19-32 1-5-13-21-17-28-13-21-14-23-13-21-10-16v-3zm-305-.81818h48v273h-48v-273z" />
    <path fill="#939494"
        d="M1414 632h52v11h-41v23h21l9 2 9 6 4 7 1 4v19l-4 10-8 7-8 3-6 1h-8l-11-3-8-6-5-10v-15h11l2 14 4 5 4 2 9 1 9-2 5-5 1-2v-19l-4-5-7-2-31-1-1-26v-18l1-1zm-475 0h43l9 3 6 4 4 6 1 3v26l-5 8-6 5-10 3h-30v32l-1 1h-11v-91zm12 11v36h29l8-4 3-6v-16l-3-6-4-3-3-1h-30zm79 13h14l10 4 4 3 1-5 4-1h4v66h-7l-2-5-12 6-13 1-10-3-7-6-4-9v-34l5-10 5-4 8-3zm3 11-5 3-4 5-1 3v24l3 7 6 4 9 1 9-3 4-5 2-6v-20l-3-8-5-4-3-1h-12zm313-35h54l1 1v9l-1 1h-43v32h39l1 2-1 9-1 1h-37l-1 35-1 1h-10l-1-1v-89l1-1zm-123 24h15l10 4 5 4 4 8 1 3 1 18-2 16-5 8-5 4-8 3-5 1h-8l-13-4-7-7-3-7-1-6v-22l3-10 4-6 7-5 7-2zm1 11-7 4-3 7v25l3 6 6 4 10 1 9-3 4-6 1-4v-22l-3-7-5-4-3-1h-12z" />
    <path fill="#969797"
        d="M1290 624h15v10l-3 1-10 1-3 1-2 6-1 14h9l9 1v10h-18v54l-1 1h-10l-1-9v-45l-7-1v-11h6l2-18 4-8 6-5 5-2z" />
    <path fill="#939494"
        d="M1133 638h10v19h9l9 1v10h-18l1 29 2 10 3 3 13 2v11h-13l-9-3-6-7-2-7v-38h-8l-1-7 1-4h7l1-18 1-1zm-24 18h6l1 1v10h-9l-8 3-4 5-1 2-1 45-1 1h-10l-1-3v-62l3-1 6 1 1 5 12-6 6-1zm906-168h8l9 3 9 8 4 9 1 9-2 8-4 7-8 7-9 3h-10l-10-4-7-7-4-9v-14l5-10 8-7 10-3zm0 4-10 4-6 7-3 7v11l4 8 8 7 6 2h9l9-4 7-8 2-5v-11l-4-9-7-6-8-3h-7z" />
    <path fill="#939494"
        d="M2007 500h17l5 3 2 3-1 7-3 3 3 5v9l-5-1-2-9-9-1-1 11h-5l-1-3v-27zm6 4v10h9l3-2v-6l-4-2h-8z"
        filter="url(#a)" />
    <ellipse cx="2020.13386" cy="518.37197" fill="#939494" rx="2.33075" ry=".17929" />
</svg>