<svg xmlns="http://www.w3.org/2000/svg" preserveAspectRatio="xMidYMid" viewBox="0 -222.5 512 512">
    <path fill="#EA1B22"
        d="M221.034224 43.3028585h33.831915l-17.88911-28.780902-32.832685 52.0371329h-14.942726l39.935489-62.50768944C230.873472 1.52582675 233.767268 0 236.977029 0c3.104134 0 5.997979 1.47323786 7.681756 3.94617225L284.75209 66.5590894h-14.942767l-7.050606-11.6281113h-34.253126l-7.471367-11.6281196Zm155.216954 11.6281196V.63139122h-12.680421V60.2452021c0 1.6310961.631499 3.2095533 1.841568 4.4197053 1.209985 1.2101935 2.841165 1.894182 4.630136 1.894182h57.824973l7.471384-11.6281113h-59.08764Zm-209.779619-9.7339376c12.312308 0 22.309332-9.9443847 22.309332-22.256526 0-12.3120998-9.997024-22.30912328-22.309332-22.30912328H110.99843V66.5590894h12.675395V12.2595108h41.955846c5.893201 0 10.62854 4.7880106 10.62854 10.6810037 0 5.8929847-4.735339 10.6810452-10.62854 10.6810452l-35.747095-.0526388 37.851599 32.9901685h18.415873l-25.466079-21.3620489h5.78759ZM32.9694209 66.5590894C14.7693798 66.5590894 0 51.8266442 0 33.6215597 0 15.4164336 14.7693798.63139122 32.9694209.63139122h38.319872c18.2050845 0 32.9639531 14.78504238 32.9639531 32.99016848 0 18.2050845-14.7588686 32.9375297-32.9639531 32.9375297h-38.319872Zm37.4674727-11.6281113c11.7914372 0 21.341218-9.5234905 21.341218-21.3094184 0-11.7859778-9.5497808-21.3620489-21.341218-21.3620489H33.8163525c-11.7859695 0-21.3412264 9.5760711-21.3412264 21.3620489 0 11.7859279 9.5552569 21.3094184 21.3412264 21.3094184h36.6205411ZM311.217808 66.5590894c-18.205126 0-32.990019-14.7324452-32.990019-32.9375297 0-18.2051261 14.784893-32.99016848 32.990019-32.99016848h45.512732l-7.418787 11.62811958h-37.252057c-11.78602 0-21.361874 9.5760711-21.361874 21.3620489 0 11.7859279 9.575854 21.3094184 21.361874 21.3094184h45.723037l-7.4713 11.6281113h-39.093625Zm155.059154-11.6281113c-9.734062 0-17.994737-6.5243843-20.520402-15.521703h54.194518l7.471383-11.6281112H445.75656c2.525665-8.9446882 10.78634-15.5216531 20.520402-15.5216531h37.19946L511.000403.63139122h-45.565329c-18.205126 0-32.990018 14.78504238-32.990018 32.99016848 0 18.2050845 14.784892 32.9375297 32.990018 32.9375297h39.093625L512 54.9309781h-45.723038Z" />
</svg>