<svg xmlns="http://www.w3.org/2000/svg" data-name="Layer 1" viewBox="0 0 512 512">
    <circle cx="256" cy="256" r="117.48" fill="none" stroke="#fff" stroke-miterlimit="10"
        stroke-width="15" />
    <circle cx="256" cy="256" r="174.64" fill="none" stroke="#fff" stroke-miterlimit="10"
        stroke-width="20" />
    <path fill="#fff"
        d="M214.8 308.55V198.79h49.47a31.9 31.9 0 0 1 14.3 3.24 37.94 37.94 0 0 1 11.36 8.51 40 40 0 0 1 7.5 11.9 35.48 35.48 0 0 1 2.7 13.45 38.09 38.09 0 0 1-4.79 18.71 33.24 33.24 0 0 1-5.64 7.49 33.86 33.86 0 0 1-7.5 5.65l24.12 40.81h-28.6l-21-35.4h-16.57v35.4ZM240.15 251h23.19c3 0 5.57-1.41 7.73-4.25s3.25-6.47 3.25-10.9-1.24-8.14-3.71-10.82-5.16-4-8-4h-22.46ZM363.11 88.83l7.43-9.94L256 10.36 140.46 78.89l8.36 9.94C178 67.55 215.3 54.77 256 54.77s77.94 12.78 107.11 34.06ZM147.89 425.31l-7.43 9.94L255 503.78l115.51-68.53-8.36-9.94C333 446.59 295.7 459.37 255 459.37s-77.94-12.78-107.11-34.06Z" />
</svg>